<svg xmlns="http://www.w3.org/2000/svg" viewBox="0 0 1500 1000"><rect x="-12.18142" y="-33.24411" width="1617.68272" height="1064.20244" fill="#ff0062"/><path d="M404.76285,457.09766a94.29231,94.29231,0,0,1,13.90136-.90039c21.30079,0,36.90235,11.40039,36.90235,35.10156,0,23.20215-14.70117,33.90234-34.00195,33.90234-5.70118,0-11.002,0-16.80176-.2998Zm3.501,64.5039c4.09961.19922,8.69922.29981,12.5.29981,19.10157,0,31.20215-10.10059,31.20215-30.30176,0-21.70117-14.001-32.20215-34.20215-32.20215a61.38567,61.38567,0,0,0-9.5.60059Z" fill="#fff"/><path d="M471.98257,524.70117a2.97922,2.97922,0,0,1-1.59961.30078,3.68968,3.68968,0,0,1-1.70117-.30078V478.09863a6.0901,6.0901,0,0,1,2.80078-.60058l.5,8.10156h.2002c2.89941-6.30078,7.40039-9.40137,14.60059-9.40137,1.90039,0,4.30078.2002,5.40039.90039a4.60762,4.60762,0,0,1,.5,2.29981,4.66164,4.66164,0,0,1-.19922,1.40039,12.21544,12.21544,0,0,0-6.10157-1.40039c-6.5,0-11.5,4.40039-14.40039,13.20117Z" fill="#fff"/><path d="M535.215,455.89648c16.90136,0,27.70214,7.30079,27.70214,21.502,0,15.001-10.20019,21.70117-25.20214,21.70117a101.60259,101.60259,0,0,1-15.30079-1v26.60156a3.16216,3.16216,0,0,1-1.69921.30078,4.17625,4.17625,0,0,1-1.80079-.30078v-67.5039A88.89556,88.89556,0,0,1,535.215,455.89648Zm-12.80079,38.90235a94.53643,94.53643,0,0,0,15.30079,1.001c13.40136,0,21.60156-5.10058,21.60156-18.20117,0-12.90136-10.5-18.40136-24.90137-18.40136a77.91971,77.91971,0,0,0-12.001.90039Z" fill="#fff"/><path d="M572.84293,501.59961c.10058,14.70117,8.501,22.10156,20.40136,22.10156a26.32451,26.32451,0,0,0,14.501-4.20019,5.93372,5.93372,0,0,1-.89941,3.40039,25.66083,25.66083,0,0,1-14.30176,4c-14.60059,0-23.10059-10.10059-23.10059-25.001,0-14.20117,8-25.70215,21.80078-25.70215,12,0,17.20117,8.001,17.20117,19.60156a27.18616,27.18616,0,0,1-.5996,5.79981Zm32.20214-3c.80079-8.7002-1.5-19.30078-14.001-19.30078-10.501,0-17.2002,8.40039-18.001,19.30078Z" fill="#fff"/><path d="M624.43179,483.499c2.70117-3.7998,7.40039-7.30078,15.40137-7.30078,10.40137,0,20.001,5.7002,20.001,23.90137,0,17.90137-9.59961,26.80176-24.30078,26.80176a28.582,28.582,0,0,1-11.10157-2v22.30175a2.98592,2.98592,0,0,1-1.59961.29981,3.69529,3.69529,0,0,1-1.69922-.29981V478.09863a6.07607,6.07607,0,0,1,2.79883-.60058l.30078,6.001Zm0,38.30176a27.22277,27.22277,0,0,0,10.70117,2c15.501,0,21.30079-10.30078,21.30079-23.60156,0-13.5-6-21.10059-16.90039-21.10059-8.20118,0-12.20118,4.29981-15.10157,8.60059Z" fill="#fff"/><path d="M676.15152,483.499c2.70019-3.7998,7.40039-7.30078,15.40137-7.30078,10.40039,0,20.001,5.7002,20.001,23.90137,0,17.90137-9.60058,26.80176-24.30175,26.80176a28.5803,28.5803,0,0,1-11.10059-2v22.30175a2.99237,2.99237,0,0,1-1.60059.29981,3.70085,3.70085,0,0,1-1.69922-.29981V478.09863a6.08028,6.08028,0,0,1,2.79981-.60058l.2998,6.001Zm0,38.30176a27.21777,27.21777,0,0,0,10.70019,2c15.502,0,21.30176-10.30078,21.30176-23.60156,0-13.5-6-21.10059-16.90136-21.10059-8.2002,0-12.2002,4.29981-15.10059,8.60059Z" fill="#fff"/><path d="M728.48376,501.59961c.09961,14.70117,8.5,22.10156,20.40039,22.10156a26.33022,26.33022,0,0,0,14.502-4.20019,5.9338,5.9338,0,0,1-.90039,3.40039,25.65714,25.65714,0,0,1-14.30078,4c-14.60156,0-23.10156-10.10059-23.10156-25.001,0-14.20117,8-25.70215,21.80078-25.70215,12.002,0,17.20117,8.001,17.20117,19.60156a27.12326,27.12326,0,0,1-.59961,5.79981Zm32.20117-3c.80078-8.7002-1.5-19.30078-14-19.30078-10.50195,0-17.20117,8.40039-18.00195,19.30078Z" fill="#fff"/><path d="M780.0736,524.70117a2.98739,2.98739,0,0,1-1.60156.30078,3.686,3.686,0,0,1-1.69922-.30078V478.09863a6.08446,6.08446,0,0,1,2.80078-.60058l.5,8.10156h.19922c2.90039-6.30078,7.40039-9.40137,14.60156-9.40137,1.90039,0,4.29883.2002,5.40039.90039a5.31483,5.31483,0,0,1,.29883,3.7002,12.20791,12.20791,0,0,0-6.09961-1.40039c-6.5,0-11.50195,4.40039-14.40039,13.20117Z" fill="#fff"/><path d="M830.20446,458.99805v65.70312a2.75077,2.75077,0,0,1-1.59961.30078,3.22213,3.22213,0,0,1-1.59961-.30078v-67.5039a7.25091,7.25091,0,0,1,2.89844-.40039,7.01605,7.01605,0,0,1,2.80078.40039L851.306,506.09961c2.19922,5.70117,4.19922,11.50195,5.90039,17.30176h.19922c1.70118-5.7002,3.90039-11.501,6.10157-17.30176l18.5-48.90234a7.02353,7.02353,0,0,1,2.80078-.40039,6.65146,6.65146,0,0,1,2.80078.40039v67.5039a2.75852,2.75852,0,0,1-1.60156.30078,3.23227,3.23227,0,0,1-1.59961-.30078V458.99805h-.19922c-1.5,4.7998-3.70117,10.90039-5.5,15.70019L859.5072,525.40137a6.53978,6.53978,0,0,1-4.502,0l-19-50.50293c-1.70117-4.5-3.90039-10.60059-5.60156-15.90039Z" fill="#fff"/><path d="M916.61462,526.90137c-8.40039,0-15.90039-3.79981-15.90039-13.7002,0-10.501,8.5-15.30078,19.40039-15.30078a29.5691,29.5691,0,0,1,11,1.79883v-5.09961c0-10.70117-3-15.30078-12.19922-15.30078a26.76345,26.76345,0,0,0-14.70117,4.70019,5.91048,5.91048,0,0,1,.5-3.70019c3.19922-2.30078,9.20117-4.10059,15-4.10059,10.10156,0,14.70117,4.60059,14.70117,17.80176v24.80078c0,4,1.5,5,3.5,5a8.21667,8.21667,0,0,0,5-1.69922,6.3101,6.3101,0,0,1-.69922,3.19922,8.42773,8.42773,0,0,1-4.90039,1.60059,5.84571,5.84571,0,0,1-6.09961-5.40039H931.015C927.515,525.40137,921.81579,526.90137,916.61462,526.90137Zm14.5-24.20117a30.05586,30.05586,0,0,0-10.59961-1.79981c-10.70117,0-16.40039,4.69922-16.40039,12.09961s5.79883,10.80078,12.90039,10.80078c4.90039,0,11.09961-1.69922,14.09961-6.2998Z" fill="#fff"/><path d="M956.70446,483.499c2.70117-3.7998,7.40039-7.30078,15.40039-7.30078,10.40039,0,20.002,5.7002,20.002,23.90137,0,17.90137-9.60157,26.80176-24.30079,26.80176a28.57822,28.57822,0,0,1-11.10156-2v22.30175a2.99527,2.99527,0,0,1-1.59961.29981,3.7045,3.7045,0,0,1-1.70117-.29981V478.09863a6.0901,6.0901,0,0,1,2.80078-.60058l.30078,6.001Zm0,38.30176a27.21931,27.21931,0,0,0,10.70117,2c15.5,0,21.30078-10.30078,21.30078-23.60156,0-13.5-6-21.10059-16.90039-21.10059-8.20117,0-12.20117,4.29981-15.10156,8.60059Z" fill="#fff"/><path d="M1063.58883,522.90137a38.45415,38.45415,0,0,1-18,4.2998c-18.60157,0-29.80274-13.40039-29.80274-35.70117,0-24.80273,13.90235-36.90234,31.40235-36.90234,5.90039,0,11.40039,1.09961,15.70117,3.69922a8.10423,8.10423,0,0,1,1.09961,3.90039,32.70147,32.70147,0,0,0-16.5-4.2002c-15.70117,0-28.002,10.40137-28.002,33.10254,0,21.90039,11,32.60156,27.002,32.60156a38.9643,38.9643,0,0,0,18.09961-4.5A7.26448,7.26448,0,0,1,1063.58883,522.90137Z" fill="#fff"/><path d="M1079.706,517.501c0,5.2998,1.9004,6.2998,5,6.2998a9.19867,9.19867,0,0,0,5.69922-2.19922,6.70733,6.70733,0,0,1-.79882,3.5,9.67077,9.67077,0,0,1-5.70118,1.79981c-3.69922,0-7.5-1.60059-7.5-8.7002V453.29688a6.71239,6.71239,0,0,1,3.30078-.79981Z" fill="#fff"/><path d="M1132.11617,520.30078c-1.89844,2.10059-6.40039,6.60059-16.70117,6.60059-8.19922,0-16.40039-2.79981-16.40039-18.90137V478.69922a6.71246,6.71246,0,0,1,3.30078-.80078V507.2002c0,10.60058,3.30078,16.60058,13.70117,16.60058,8.19922,0,13.80078-3.7998,16.20117-7.40039v-38.002a3.68974,3.68974,0,0,1,1.69922-.29981,2.98592,2.98592,0,0,1,1.59961.29981V525.002a4.87491,4.87491,0,0,1-2.5.59961l-.69922-5.30078Z" fill="#fff"/><path d="M1154.23674,452.49707v21.30176c0,3.69922,0,7.19922-.30078,10h.19922c2.5-4.2002,7.60156-7.60059,15.40234-7.60059,10.19922,0,20.09961,5.60059,20.09961,23.90137,0,17.80078-9.40039,26.80176-24.90039,26.80176A39.4,39.4,0,0,1,1150.936,524.502V453.29688A6.71239,6.71239,0,0,1,1154.23674,452.49707Zm0,69.80371a30.90732,30.90732,0,0,0,10,1.5c16.20117,0,22.002-9.70019,22.002-23.10156,0-14-6.20118-21.60059-16.90235-21.60059-8,0-12.20117,4.2002-15.09961,8.60059Z" fill="#fff"/><path d="M344.44765,441.97248a34.08475,34.08475,0,0,0-34.08474,34.08476c0,23.84227,31.80544,39.358,31.80544,61.37094,0,2.6637,4.55859,2.6637,4.55859,0,0-22.01292,31.80544-37.52867,31.80544-61.37094A34.08474,34.08474,0,0,0,344.44765,441.97248ZM333.452,481.76123c-4.44848,0-8.05469-5.25016-8.05469-11.72654s3.60621-11.72657,8.05469-11.72657c4.44825,0,8.05445,5.25016,8.05445,11.72657S337.90028,481.76123,333.452,481.76123Zm10.99562,12.04517a4.33159,4.33159,0,1,1,4.33154-4.33161A4.33152,4.33152,0,0,1,344.44765,493.8064Zm10.99561-12.04517c-4.44825,0-8.05445-5.25016-8.05445-11.72654s3.6062-11.72657,8.05445-11.72657c4.44848,0,8.05469,5.25016,8.05469,11.72657S359.89174,481.76123,355.44326,481.76123Z" fill="#fff"/></svg>