<svg xmlns="http://www.w3.org/2000/svg" viewBox="0 0 100 100"><line x1="3.49999" y1="3.49999" x2="96.50001" y2="96.50001" fill="#fff"/><path d="M96.5,99.5a2.99025,2.99025,0,0,1-2.12109-.87891l-93-93A2.99967,2.99967,0,0,1,5.62109,1.37891l93,93A3,3,0,0,1,96.5,99.5Z" fill="#231815"/><line x1="3.49999" y1="96.50001" x2="96.50001" y2="3.49999" fill="#fff"/><path d="M3.5,99.5a3,3,0,0,1-2.12109-5.12109l93-93a2.99967,2.99967,0,0,1,4.24218,4.24218l-93,93A2.99025,2.99025,0,0,1,3.5,99.5Z" fill="#231815"/></svg>