<svg xmlns="http://www.w3.org/2000/svg" viewBox="0 0 100 100"><path d="M7.70068,95.2998a3.00066,3.00066,0,0,1-2.709-4.291l8.55078-17.94043C4.78955,65.46,0,55.67969,0,45.2998,0,22.91309,22.43018,4.7002,50,4.7002s50,18.21289,50,40.5996S77.56982,85.90039,50,85.90039a61.49827,61.49827,0,0,1-12.63037-1.29394L8.73389,95.11621A2.99172,2.99172,0,0,1,7.70068,95.2998ZM50,10.7002c-24.26172,0-44,15.52148-44,34.5996,0,9.2129,4.65625,17.94532,13.11035,24.5879a3.00051,3.00051,0,0,1,.85449,3.65039L13.57373,86.94824l22.5459-8.27441a2.9965,2.9965,0,0,1,1.69092-.11035,56.05952,56.05952,0,0,0,12.1831,1.33691C74.26172,79.90039,94,64.37891,94,45.2998,94,26.22168,74.26172,10.7002,50,10.7002Z" fill="#231815"/><circle cx="70" cy="45.3" r="3" fill="#231815"/><circle cx="50" cy="45.3" r="3" fill="#231815"/><circle cx="30" cy="45.3" r="3" fill="#231815"/></svg>