<svg xmlns="http://www.w3.org/2000/svg" viewBox="0 0 100 100"><path d="M50,81.96484a2.99983,2.99983,0,0,1-3-3v-6.331c0-6.39258,2.27246-12.9209,13.36279-24.00488,10.50928-10.50879,11.9585-16.68946,11.9585-21.80176,0-.208-.5669-20.82715-20.835-20.82715C31.95557,6,27.67871,21.03418,27.67871,26.82715a3,3,0,0,1-6,0C21.67871,16.45508,29.771,0,51.48633,0c21.90478,0,26.835,19.86719,26.835,26.82715,0,6.09668-1.62988,13.959-13.7168,26.04492C53.896,63.57422,53,68.50293,53,72.63379v6.331A2.99983,2.99983,0,0,1,50,81.96484Z" fill="#231815"/><circle cx="50" cy="96.68948" r="3.31052" fill="#231815"/></svg>