<svg xmlns="http://www.w3.org/2000/svg" viewBox="0 0 100 100"><path d="M50.46582,94.083c-2.96973,0-6.0127-2.35059-8.23437-4.06739-.26954-.208-.52051-.40234-.749-.57324A217.365,217.365,0,0,1,21.93457,73.07617C1.24316,53.10156-4.83887,35.13525,3.81348,19.63525A24.59757,24.59757,0,0,1,22.126,6.40674c8.96484-1.81983,18.45019,1.811,28.21875,10.80713C57.43945,10.09229,66.36133,5.917,74.71191,5.917A23.41181,23.41181,0,0,1,94.90527,16.853c5.84082,8.96093,6.76856,21.77588,2.30762,31.88867-7.49707,17.33447-23.32227,30.3208-37.8125,40.73682-.17969.13476-.43066.3291-.70019.5371C56.47852,91.73242,53.43652,94.083,50.46582,94.083Zm-23.832-82.12744a16.58533,16.58533,0,0,0-3.39356.34765c-.07226.01465-.14355.02686-.21582.03662a18.77125,18.77125,0,0,0-13.876,10.042c-.02149.042-.044.08447-.06739.126C1.7793,35.52441,7.333,50.64062,26.05957,68.71973A211.39606,211.39606,0,0,0,45.05566,84.62305c.27539.206.55079.418.84375.64453.9834.75976,3.59473,2.77734,4.57032,2.81543.96777-.03809,3.5791-2.05567,4.5625-2.81543.29394-.22656.56836-.43848.81738-.626,13.87305-9.97168,28.93945-22.28906,35.86426-38.30127,3.62793-8.22363,2.86914-18.99365-1.835-26.21094a17.38845,17.38845,0,0,0-15.167-8.2124c-7.502,0-15.71875,4.313-21.97851,11.53662a3.00082,3.00082,0,0,1-4.38867.15674C40.59766,15.86279,33.31152,11.95557,26.63379,11.95557Z" fill="#121212"/></svg>