<svg xmlns="http://www.w3.org/2000/svg" viewBox="0 0 100 100"><path d="M50.4707,94.0205c-2.82129,0-5.81543-2.31348-8.001-4.00293-.27246-.21094-.52735-.40723-.75879-.58106a219.3976,219.3976,0,0,1-19.71387-16.5039C1.28516,52.93456-4.82812,34.98925,3.792,19.56005A24.32364,24.32364,0,0,1,21.918,6.46727c9.00976-1.83789,18.56641,1.90918,28.44726,11.13916C57.49414,10.28514,66.5332,5.98,74.97461,5.98A23.1431,23.1431,0,0,1,94.9375,16.79149c5.80957,8.91211,6.72949,21.66016,2.29,31.72217C89.70215,65.916,73.77637,78.98241,59.19043,89.46679c-.19141.14453-.44727.34179-.7207.55371C56.28418,91.708,53.291,94.0205,50.4707,94.0205Zm-24.085-83.002a17.28587,17.28587,0,0,0-3.53906.3628c-.05957.0122-.11914.02246-.17969.03027A19.51807,19.51807,0,0,0,8.2373,21.85009c-.01757.03515-.0371.07031-.05566.105C.668,35.3496,6.31152,50.8369,25.43457,69.30175A214.60409,214.60409,0,0,0,44.68945,85.42089c.27051.20215.54493.41406.83789.64062,1.14551.88574,3.82813,2.959,4.94336,2.959,1.11426,0,3.79688-2.07227,4.94141-2.957.29492-.22754.56934-.43946.81934-.627,14.07128-10.11523,29.36523-22.623,36.41406-38.92431C96.37891,38.05028,95.5957,26.958,90.749,19.522A18.0851,18.0851,0,0,0,74.97461,10.98c-7.7334,0-16.1875,4.42725-22.61426,11.84277a2.49972,2.49972,0,0,1-3.65723.13037C40.76953,15.01952,33.28027,11.01854,26.38574,11.01854Z" fill="#121212"/></svg>