<svg xmlns="http://www.w3.org/2000/svg" viewBox="0 0 100 100"><path d="M93.02539,6.97559A23.0001,23.0001,0,0,0,76.90674,0h-.13135a23.96367,23.96367,0,0,0-16.875,7.415L57.94263,9.3728l-.00269.0022-.0022.00269L9.02246,58.293a2.997,2.997,0,0,0-.80713,1.46973L.07178,96.34766a3.00128,3.00128,0,0,0,3.58008,3.581l36.58642-8.14453a2.98907,2.98907,0,0,0,1.46924-.80664L92.58545,40.09961C102.30957,30.376,102.49463,16.44434,93.02539,6.97559Zm-53.439,77.63818L15.38623,60.41406,60.06128,15.73859l24.2,24.20037ZM12.88519,66.39783,33.60291,87.11517,6.95361,93.04688ZM88.49683,35.6897l-24.18647-24.187A17.72084,17.72084,0,0,1,76.76953,6h.1001a17.04257,17.04257,0,0,1,11.91308,5.21777C95.85345,18.289,95.719,28.32147,88.49683,35.6897Z" fill="#121212"/></svg>