<svg xmlns="http://www.w3.org/2000/svg" viewBox="0 0 100 100"><path d="M50,61.09961a2.99952,2.99952,0,0,0-3,3v15.667a3,3,0,0,0,6,0v-15.667A2.99952,2.99952,0,0,0,50,61.09961Z" fill="#231815"/><path d="M75.06641,43.86621h-1.7002v-20.5a23.36621,23.36621,0,0,0-46.73242,0v20.5h-1.7002A12.41406,12.41406,0,0,0,12.5332,56.2666v31.333A12.41406,12.41406,0,0,0,24.93359,100H75.06641A12.41406,12.41406,0,0,0,87.4668,87.59961V56.2666A12.41406,12.41406,0,0,0,75.06641,43.86621Zm-42.43262-20.5a17.36621,17.36621,0,1,1,34.73242,0v20.5H32.63379Zm48.833,64.2334A6.4075,6.4075,0,0,1,75.06641,94H24.93359a6.4075,6.4075,0,0,1-6.40039-6.40039V56.2666a6.4075,6.4075,0,0,1,6.40039-6.40039H75.06641A6.4075,6.4075,0,0,1,81.4668,56.2666Z" fill="#231815"/></svg>