<svg xmlns="http://www.w3.org/2000/svg" viewBox="0 0 100 100"><path d="M50,74.93359A24.93359,24.93359,0,1,1,74.93311,50,24.9619,24.9619,0,0,1,50,74.93359Zm0-43.86718A18.93359,18.93359,0,1,0,68.93311,50,18.95472,18.95472,0,0,0,50,31.06641Z" fill="#121212"/><path d="M52.98877,100H47.01416a7.87272,7.87272,0,0,1-7.84766-7.8418A1.88031,1.88031,0,0,0,37.79785,90.376a42.01054,42.01054,0,0,1-7.65918-3.17481,1.93115,1.93115,0,0,0-2.29394.28809A7.86593,7.86593,0,0,1,16.77,87.47363l-4.2334-4.23242a7.87481,7.87481,0,0,1-.00439-11.0957,1.91107,1.91107,0,0,0,.2915-2.24219,42.06151,42.06151,0,0,1-3.18311-7.66113A1.90034,1.90034,0,0,0,7.82178,60.833,7.86647,7.86647,0,0,1,0,52.98926V47.01367A7.87273,7.87273,0,0,1,7.84131,39.167a1.90664,1.90664,0,0,0,1.79053-1.36816,42.06584,42.06584,0,0,1,3.17382-7.65918,1.9318,1.9318,0,0,0-.28711-2.29492,7.86759,7.86759,0,0,1,.01514-11.07422l4.22461-4.23242a7.87346,7.87346,0,0,1,11.0957-.00586,1.914,1.914,0,0,0,2.24268.292,42.08194,42.08194,0,0,1,7.66162-3.1836,1.92342,1.92342,0,0,0,1.4082-1.81835A7.86753,7.86753,0,0,1,47.00879,0h5.97705A7.87272,7.87272,0,0,1,60.8335,7.8418,1.90318,1.90318,0,0,0,62.20605,9.625a42.16215,42.16215,0,0,1,7.66651,3.17578,1.92516,1.92516,0,0,0,2.293-.28711,7.86952,7.86952,0,0,1,11.0747.01465l4.2251,4.2334a7.873,7.873,0,0,1,.00244,11.09277,1.91107,1.91107,0,0,0-.2915,2.24219,42.06151,42.06151,0,0,1,3.18311,7.66113A1.90034,1.90034,0,0,0,92.17822,39.167h0A7.87188,7.87188,0,0,1,100,47.00781v5.97852A7.87273,7.87273,0,0,1,92.15869,60.833a1.90329,1.90329,0,0,0-1.78125,1.37207,42.09646,42.09646,0,0,1-3.17529,7.66406,1.92991,1.92991,0,0,0,.2876,2.29395,7.868,7.868,0,0,1-.01563,11.07421l-4.23584,4.22852a7.87111,7.87111,0,0,1-11.09228.002,1.91305,1.91305,0,0,0-2.24268-.292,42.08194,42.08194,0,0,1-7.66162,3.1836,1.92342,1.92342,0,0,0-1.4082,1.81835A7.86709,7.86709,0,0,1,52.98877,100ZM29.20264,80.95508a7.84162,7.84162,0,0,1,3.80664.97851A35.95766,35.95766,0,0,0,39.50684,84.625a7.83835,7.83835,0,0,1,5.65966,7.499A1.86519,1.86519,0,0,0,47.01953,94h5.96485a1.85951,1.85951,0,0,0,1.84912-1.85352,7.95626,7.95626,0,0,1,5.70312-7.54,35.82443,35.82443,0,0,0,6.49707-2.7002,7.9442,7.9442,0,0,1,9.33154,1.2959,1.86588,1.86588,0,0,0,2.63623.01562l4.22754-4.2207a1.85908,1.85908,0,0,0-.00586-2.61523A7.96129,7.96129,0,0,1,81.93262,66.999a35.86612,35.86612,0,0,0,2.6914-6.498,7.83887,7.83887,0,0,1,7.499-5.668A1.865,1.865,0,0,0,94,52.98047v-5.9668A1.85848,1.85848,0,0,0,92.14746,45.167h-.02a7.94761,7.94761,0,0,1-7.52051-5.70508,35.85867,35.85867,0,0,0-2.6997-6.49414,7.94206,7.94206,0,0,1,1.29443-9.332,1.86632,1.86632,0,0,0,.01514-2.63769l-4.21631-4.22461a1.86059,1.86059,0,0,0-2.61572.00683,7.95778,7.95778,0,0,1-9.38282,1.28907,35.96121,35.96121,0,0,0-6.498-2.69043A7.93546,7.93546,0,0,1,54.8335,7.876,1.86519,1.86519,0,0,0,52.98047,6H47.01416A1.85921,1.85921,0,0,0,45.1665,7.85352a7.95626,7.95626,0,0,1-5.70312,7.54,35.82443,35.82443,0,0,0-6.49707,2.7002,7.94249,7.94249,0,0,1-9.33154-1.2959,1.86854,1.86854,0,0,0-2.63623-.01562l-4.21583,4.22461a1.85933,1.85933,0,0,0,.002,2.61914,7.96129,7.96129,0,0,1,1.29053,9.38281,35.88378,35.88378,0,0,0-2.6919,6.498A7.93963,7.93963,0,0,1,7.87158,45.167,1.8638,1.8638,0,0,0,6,47.01953v5.96485A1.85825,1.85825,0,0,0,7.85254,54.833a7.95321,7.95321,0,0,1,7.54053,5.70508,35.85867,35.85867,0,0,0,2.6997,6.49414,7.94206,7.94206,0,0,1-1.29443,9.332,1.86632,1.86632,0,0,0-.01514,2.63769l4.22559,4.22559a1.85727,1.85727,0,0,0,2.6167-.00391A7.96306,7.96306,0,0,1,29.20264,80.95508Z" fill="#121212"/></svg>