<svg xmlns="http://www.w3.org/2000/svg" viewBox="0 0 100 100"><path d="M87.59961,0H34.333A12.41385,12.41385,0,0,0,21.93359,12.40039v59.666H3a2.99952,2.99952,0,0,0-3,3V81.333A18.68819,18.68819,0,0,0,18.667,100H62.5332a18.6882,18.6882,0,0,0,18.667-18.667V21.667H97a2.99952,2.99952,0,0,0,3-3v-6.2666A12.41406,12.41406,0,0,0,87.59961,0ZM18.667,94A12.68163,12.68163,0,0,1,6,81.333v-3.2666H43.86621V81.333A18.59818,18.59818,0,0,0,48.833,94ZM75.2002,12.40039V81.333a12.667,12.667,0,0,1-25.334,0v-6.2666a2.99952,2.99952,0,0,0-3-3H27.93359v-59.666A6.40729,6.40729,0,0,1,34.333,6H76.99957A12.30728,12.30728,0,0,0,75.2002,12.40039ZM94,15.667H81.2002v-3.2666a6.3999,6.3999,0,1,1,12.7998,0Z" fill="#121212"/><path d="M56.2666,53.2666H37.4668a3,3,0,1,0,0,6H56.2666a3,3,0,0,0,0-6Z" fill="#121212"/><path d="M62.5332,15.667H37.4668a3,3,0,0,0,0,6H62.5332a3,3,0,0,0,0-6Z" fill="#121212"/><path d="M37.4668,34.2002H56.2666a3,3,0,0,0,0-6H37.4668a3,3,0,1,0,0,6Z" fill="#121212"/><path d="M62.5332,40.7334H37.4668a3,3,0,1,0,0,6H62.5332a3,3,0,0,0,0-6Z" fill="#121212"/></svg>