<svg xmlns="http://www.w3.org/2000/svg" viewBox="0 0 100 100"><path d="M78.22656,34.4668a9.21188,9.21188,0,0,0-3.56354.71472A9.253,9.253,0,0,0,61.03711,29.457a9.26294,9.26294,0,0,0-11.14356-3.7959V9.2666a9.2666,9.2666,0,1,0-18.5332,0V54.06445l-1.27344-2.085a9.267,9.267,0,0,0-12.415-4.03906l-.09376.04687a9.2666,9.2666,0,0,0-4.0664,12.458c.03418.06836.07226.13477.11133.20117l18.4873,30.39258.00549.00684.00428.00879A18.70056,18.70056,0,0,0,48.14648,100H68.82715a18.68735,18.68735,0,0,0,18.666-18.667V43.7334A9.2774,9.2774,0,0,0,78.22656,34.4668ZM81.49316,81.333A12.6808,12.6808,0,0,1,68.82715,94H48.14551a12.73953,12.73953,0,0,1-10.91614-6.09113L18.81836,57.6416a3.2479,3.2479,0,0,1-.14941-2.40625,3.28883,3.28883,0,0,1,1.69628-1.93359,3.24889,3.24889,0,0,1,2.49317-.19336,3.284,3.284,0,0,1,1.9248,1.67969c.03809.07519.0791.15039.124.22265l6.875,11.25c.03125.05274.06445.10449.09863.1543a2.99975,2.99975,0,0,0,5.46973-1.44141c.00781-.09863.01171-.19726.00976-.29687V9.2666a3.2666,3.2666,0,1,1,6.5332,0V43.7334a3,3,0,0,0,6,0V34.333a3.26661,3.26661,0,0,1,6.53321,0v12.5332a3,3,0,0,0,6,0V37.4668a3.2666,3.2666,0,0,1,6.5332,0V50a3,3,0,0,0,6,0V43.7334a3.2666,3.2666,0,1,1,6.5332,0Z" fill="#231815"/></svg>