<svg xmlns="http://www.w3.org/2000/svg" viewBox="0 0 100 100"><path d="M76.89062,26.89014A26.89062,26.89062,0,1,0,35.97974,49.82648,49.29956,49.29956,0,0,0,.78027,97a3,3,0,0,0,6,0A43.26876,43.26876,0,0,1,50,53.78076,26.92064,26.92064,0,0,0,76.89062,26.89014ZM50,47.78076A20.89038,20.89038,0,1,1,70.89062,26.89014,20.91408,20.91408,0,0,1,50,47.78076Z" fill="#231815"/><path d="M84.24249,80,96.26367,67.979a2.99985,2.99985,0,0,0-4.24219-4.24267L80,75.75763,67.97852,63.73633A2.99985,2.99985,0,0,0,63.73633,67.979L75.75751,80,63.73633,92.021a2.99985,2.99985,0,0,0,4.24219,4.24267L80,84.24237l12.02148,12.0213A2.99985,2.99985,0,0,0,96.26367,92.021Z" fill="#231815"/></svg>