<svg xmlns="http://www.w3.org/2000/svg" viewBox="0 0 18 18">
  <path
    d="M17.64,9.20455a10.34061,10.34061,0,0,0-.16364-1.84091H9V10.845h4.84364a4.14026,4.14026,0,0,1-1.79591,2.71636v2.25819h2.90863A8.77749,8.77749,0,0,0,17.64,9.20455Z"
    fill="#4285f4"
    fill-rule="evenodd"
  />
  <path
    d="M9,18a8.59237,8.59237,0,0,0,5.95636-2.18045l-2.90863-2.25819A5.42965,5.42965,0,0,1,3.96409,10.71H.95727v2.33182A8.99661,8.99661,0,0,0,9,18Z"
    fill="#34a853"
    fill-rule="evenodd"
  />
  <path
    d="M3.96409,10.71a5.32075,5.32075,0,0,1,0-3.42V4.95818H.95727a9.01139,9.01139,0,0,0,0,8.08364L3.96409,10.71Z"
    fill="#fbbc05"
    fill-rule="evenodd"
  />
  <path
    d="M9,3.57955a4.86194,4.86194,0,0,1,3.44045,1.3459l2.58137-2.58136A8.64946,8.64946,0,0,0,9,0,8.99661,8.99661,0,0,0,.95727,4.95818L3.96409,7.29A5.36367,5.36367,0,0,1,9,3.57955Z"
    fill="#ea4335"
    fill-rule="evenodd"
  />
  <path d="M0,0H18V18H0Z" fill="none" />
</svg>
