<svg xmlns="http://www.w3.org/2000/svg" viewBox="0 0 879.27422 105.53045"><path d="M94.39994,15.12518a94.29231,94.29231,0,0,1,13.90136-.90039c21.30078,0,36.90235,11.40039,36.90235,35.10156,0,23.20215-14.70117,33.90234-34.002,33.90234-5.70117,0-11.00195,0-16.80175-.2998Zm3.501,64.5039c4.09961.19922,8.69922.29981,12.5.29981,19.10157,0,31.20215-10.10059,31.20215-30.30176,0-21.70117-14.001-32.20215-34.20215-32.20215a61.38567,61.38567,0,0,0-9.5.60059Z" fill="#000038"/><path d="M161.61966,82.72869a2.97922,2.97922,0,0,1-1.59961.30078,3.68968,3.68968,0,0,1-1.70117-.30078V36.12615a6.0901,6.0901,0,0,1,2.80078-.60058l.5,8.10156h.2002c2.89941-6.30078,7.40039-9.40137,14.60058-9.40137,1.90039,0,4.30079.2002,5.40039.90039a4.60751,4.60751,0,0,1,.5,2.29981,4.66169,4.66169,0,0,1-.19921,1.40039,12.21544,12.21544,0,0,0-6.10157-1.40039c-6.5,0-11.5,4.40039-14.40039,13.20117Z" fill="#000038"/><path d="M224.85208,13.924c16.90137,0,27.70215,7.30079,27.70215,21.502,0,15.001-10.20019,21.70117-25.20215,21.70117a101.60123,101.60123,0,0,1-15.30078-1V82.72869a3.16218,3.16218,0,0,1-1.69922.30078,4.1762,4.1762,0,0,1-1.80078-.30078V15.22479A88.89553,88.89553,0,0,1,224.85208,13.924ZM212.0513,52.82635a94.53625,94.53625,0,0,0,15.30078,1.001c13.40137,0,21.60157-5.10059,21.60157-18.20118,0-12.90136-10.5-18.40136-24.90137-18.40136a77.91952,77.91952,0,0,0-12.001.90039Z" fill="#000038"/><path d="M262.48,59.62713c.10059,14.70117,8.501,22.10156,20.40137,22.10156a26.32451,26.32451,0,0,0,14.501-4.20019,5.93365,5.93365,0,0,1-.89942,3.40039,25.66077,25.66077,0,0,1-14.30175,4c-14.60059,0-23.10059-10.10059-23.10059-25.001,0-14.20117,8-25.70215,21.80078-25.70215,12,0,17.20117,8.001,17.20117,19.60157a27.18534,27.18534,0,0,1-.59961,5.7998Zm32.20215-3c.80078-8.7002-1.5-19.30078-14.001-19.30078-10.501,0-17.2002,8.40039-18.001,19.30078Z" fill="#000038"/><path d="M314.06888,41.52654c2.70117-3.7998,7.40039-7.30078,15.40137-7.30078,10.40137,0,20.001,5.7002,20.001,23.90137,0,17.90137-9.59961,26.80176-24.30079,26.80176a28.582,28.582,0,0,1-11.10156-2v22.30176a2.986,2.986,0,0,1-1.59961.2998,3.69544,3.69544,0,0,1-1.69922-.2998V36.12615a6.07607,6.07607,0,0,1,2.79883-.60058l.30078,6.001Zm0,38.30176a27.22277,27.22277,0,0,0,10.70117,2c15.501,0,21.30078-10.30078,21.30078-23.60156,0-13.5-6-21.10059-16.90039-21.10059-8.20117,0-12.20117,4.29981-15.10156,8.60059Z" fill="#000038"/><path d="M365.78861,41.52654c2.70019-3.7998,7.40039-7.30078,15.40137-7.30078,10.40039,0,20.001,5.7002,20.001,23.90137,0,17.90137-9.60058,26.80176-24.30176,26.80176a28.58025,28.58025,0,0,1-11.10058-2v22.30176a2.99249,2.99249,0,0,1-1.60059.2998,3.70094,3.70094,0,0,1-1.69922-.2998V36.12615a6.08028,6.08028,0,0,1,2.79981-.60058l.2998,6.001Zm0,38.30176a27.21773,27.21773,0,0,0,10.70019,2c15.502,0,21.30176-10.30078,21.30176-23.60156,0-13.5-6-21.10059-16.90137-21.10059-8.20019,0-12.20019,4.29981-15.10058,8.60059Z" fill="#000038"/><path d="M418.12085,59.62713c.09961,14.70117,8.5,22.10156,20.40039,22.10156a26.33022,26.33022,0,0,0,14.502-4.20019,5.9338,5.9338,0,0,1-.90039,3.40039,25.65714,25.65714,0,0,1-14.30078,4c-14.60156,0-23.10156-10.10059-23.10156-25.001,0-14.20117,8-25.70215,21.80078-25.70215,12.002,0,17.20117,8.001,17.20117,19.60157a27.1231,27.1231,0,0,1-.59961,5.7998Zm32.20117-3c.80078-8.7002-1.5-19.30078-14-19.30078-10.502,0-17.20117,8.40039-18.002,19.30078Z" fill="#000038"/><path d="M469.71069,82.72869a2.98739,2.98739,0,0,1-1.60156.30078,3.686,3.686,0,0,1-1.69922-.30078V36.12615a6.08446,6.08446,0,0,1,2.80078-.60058l.5,8.10156h.19922c2.90039-6.30078,7.40039-9.40137,14.60156-9.40137,1.90039,0,4.29883.2002,5.40039.90039a5.31483,5.31483,0,0,1,.29883,3.7002,12.20791,12.20791,0,0,0-6.09961-1.40039c-6.5,0-11.502,4.40039-14.40039,13.20117Z" fill="#000038"/><path d="M519.84155,17.02557V82.72869a2.75077,2.75077,0,0,1-1.59961.30078,3.22213,3.22213,0,0,1-1.59961-.30078V15.22479a7.25091,7.25091,0,0,1,2.89844-.40039,7.01605,7.01605,0,0,1,2.80078.40039l18.60156,48.90234c2.19922,5.70117,4.19922,11.502,5.90039,17.30176h.19922c1.70117-5.7002,3.90039-11.501,6.10156-17.30176l18.5-48.90234a7.02359,7.02359,0,0,1,2.80079-.40039,6.6515,6.6515,0,0,1,2.80078.40039v67.5039a2.75856,2.75856,0,0,1-1.60157.30078,3.23232,3.23232,0,0,1-1.59961-.30078V17.02557h-.19921c-1.5,4.7998-3.70118,10.90039-5.5,15.70019L549.14428,83.42889a6.53976,6.53976,0,0,1-4.50195,0l-19-50.50293c-1.70117-4.5-3.90039-10.60059-5.60156-15.90039Z" fill="#000038"/><path d="M606.25171,84.92889c-8.40039,0-15.90039-3.79981-15.90039-13.7002,0-10.501,8.5-15.30078,19.40039-15.30078a29.5691,29.5691,0,0,1,11,1.79883V52.62713c0-10.70117-3-15.30078-12.19922-15.30078a26.76345,26.76345,0,0,0-14.70117,4.70019,5.91041,5.91041,0,0,1,.5-3.70019c3.19921-2.30078,9.20117-4.10059,15-4.10059,10.10156,0,14.70117,4.60059,14.70117,17.80176V76.8283c0,4,1.5,5,3.5,5a8.21667,8.21667,0,0,0,5-1.69922,6.3101,6.3101,0,0,1-.69922,3.19922,8.42773,8.42773,0,0,1-4.90039,1.60059,5.84571,5.84571,0,0,1-6.09961-5.40039h-.20117C617.1521,83.42889,611.45288,84.92889,606.25171,84.92889Zm14.5-24.20117a30.05586,30.05586,0,0,0-10.59961-1.79981c-10.70118,0-16.40039,4.69922-16.40039,12.09961S599.55053,81.8283,606.6521,81.8283c4.90039,0,11.09961-1.69922,14.09961-6.2998Z" fill="#000038"/><path d="M646.34155,41.52654c2.70117-3.7998,7.40039-7.30078,15.40039-7.30078,10.40039,0,20.00195,5.7002,20.00195,23.90137,0,17.90137-9.60156,26.80176-24.30078,26.80176a28.57822,28.57822,0,0,1-11.10156-2v22.30176a2.99539,2.99539,0,0,1-1.59961.2998,3.70465,3.70465,0,0,1-1.70117-.2998V36.12615a6.0901,6.0901,0,0,1,2.80078-.60058l.30078,6.001Zm0,38.30176a27.21931,27.21931,0,0,0,10.70117,2c15.5,0,21.30078-10.30078,21.30078-23.60156,0-13.5-6-21.10059-16.90039-21.10059-8.20117,0-12.20117,4.29981-15.10156,8.60059Z" fill="#000038"/><path d="M753.22592,80.92889a38.45415,38.45415,0,0,1-18,4.2998c-18.60157,0-29.80274-13.40039-29.80274-35.70117,0-24.80273,13.90234-36.90234,31.40234-36.90234,5.9004,0,11.4004,1.09961,15.70118,3.69922a8.10423,8.10423,0,0,1,1.09961,3.90039,32.70147,32.70147,0,0,0-16.5-4.2002c-15.70118,0-28.002,10.40137-28.002,33.10254,0,21.90039,11,32.60156,27.002,32.60156a38.9643,38.9643,0,0,0,18.09961-4.5A7.26448,7.26448,0,0,1,753.22592,80.92889Z" fill="#000038"/><path d="M769.3431,75.5285c0,5.2998,1.90039,6.2998,5,6.2998a9.19867,9.19867,0,0,0,5.69922-2.19922,6.70732,6.70732,0,0,1-.79883,3.5,9.67071,9.67071,0,0,1-5.70117,1.79981c-3.69922,0-7.5-1.60059-7.5-8.7002V11.3244a6.71239,6.71239,0,0,1,3.30078-.79981Z" fill="#000038"/><path d="M821.75326,78.3283c-1.89844,2.10059-6.40039,6.60059-16.70117,6.60059-8.19922,0-16.40039-2.79981-16.40039-18.90137V36.72674a6.71246,6.71246,0,0,1,3.30078-.80078V65.22772c0,10.60058,3.30078,16.60058,13.70117,16.60058,8.19922,0,13.80078-3.7998,16.20117-7.40039V36.426a3.68974,3.68974,0,0,1,1.69922-.29981,2.98592,2.98592,0,0,1,1.59961.29981V83.02947a4.87491,4.87491,0,0,1-2.5.59961l-.69922-5.30078Z" fill="#000038"/><path d="M843.87383,10.52459V31.82635c0,3.69922,0,7.19922-.30078,10h.19922c2.5-4.2002,7.60156-7.60059,15.40234-7.60059,10.19922,0,20.09961,5.60059,20.09961,23.90137,0,17.80078-9.40039,26.80176-24.90039,26.80176a39.4,39.4,0,0,1-13.80078-2.39942V11.3244A6.71239,6.71239,0,0,1,843.87383,10.52459Zm0,69.80371a30.90732,30.90732,0,0,0,10,1.5c16.20117,0,22.00195-9.70019,22.00195-23.10156,0-14-6.20117-21.60059-16.90234-21.60059-8,0-12.20117,4.2002-15.09961,8.60059Z" fill="#000038"/><path d="M34.08473,0A34.08474,34.08474,0,0,0,0,34.08476C0,57.927,31.80544,73.44279,31.80544,95.4557c0,2.6637,4.55859,2.6637,4.55859,0,0-22.01291,31.80544-37.52867,31.80544-61.37094A34.08475,34.08475,0,0,0,34.08473,0ZM23.08912,39.78875c-4.44849,0-8.05469-5.25016-8.05469-11.72654s3.6062-11.72657,8.05469-11.72657c4.44825,0,8.05445,5.25016,8.05445,11.72657S27.53737,39.78875,23.08912,39.78875ZM34.08473,51.83392a4.33159,4.33159,0,1,1,4.33155-4.33161A4.33152,4.33152,0,0,1,34.08473,51.83392ZM45.08034,39.78875c-4.44824,0-8.05444-5.25016-8.05444-11.72654s3.6062-11.72657,8.05444-11.72657c4.44849,0,8.0547,5.25016,8.0547,11.72657S49.52883,39.78875,45.08034,39.78875Z" fill="#000038"/></svg>
