<svg xmlns="http://www.w3.org/2000/svg" viewBox="0 0 136.33887 194.90686"><path d="M68.16943,0A68.16946,68.16946,0,0,0,0,68.16949c0,47.68451,63.61084,78.716,63.61084,122.74183,0,5.32739,9.11719,5.32739,9.11719,0,0-44.02582,63.61084-75.05732,63.61084-122.74183A68.16947,68.16947,0,0,0,68.16943,0ZM46.17822,79.57745c-8.897,0-16.10937-10.5003-16.10937-23.45306s7.2124-23.45313,16.10937-23.45313c8.89649,0,16.10889,10.50031,16.10889,23.45313S55.07471,79.57745,46.17822,79.57745Zm21.99121,24.09034a8.66318,8.66318,0,1,1,8.66309-8.66321A8.663,8.663,0,0,1,68.16943,103.66779ZM90.16064,79.57745c-8.89648,0-16.10888-10.5003-16.10888-23.45306s7.2124-23.45313,16.10888-23.45313c8.897,0,16.10938,10.50031,16.10938,23.45313S99.05762,79.57745,90.16064,79.57745Z" fill="#ff0062"/></svg>